<?xml version="1.0" encoding="utf-8"?>
<svg id="Layer_1" style="enable-background:new 0 0 50 50;" x="0px" y="0px" viewBox="0 0 50 50" xmlns="http://www.w3.org/2000/svg">
  <g>
    <rect x="23.6" y="11.1" transform="matrix(0.7071 -0.7071 0.7071 0.7071 -10.3553 25)" width="2.8" height="27.7" style="fill: rgb(255, 255, 255);"/>
    <rect x="23.6" y="11.1" transform="matrix(0.7071 0.7071 -0.7071 0.7071 25 -10.3553)" width="2.8" height="27.7" style="fill: rgb(255, 255, 255);"/>
  </g>
  <path d="M25,48C12.3,48,2,37.7,2,25C2,12.3,12.3,2,25,2c12.7,0,23,10.3,23,23C48,37.7,37.7,48,25,48z M25,8C15.6,8,8,15.6,8,25&#10;&#9;s7.6,17,17,17s17-7.6,17-17S34.4,8,25,8z" style="fill: rgb(255, 255, 255);"/>
</svg>