<svg width="200" height="200" xmlns="http://www.w3.org/2000/svg">
 <!-- Created with Method Draw - http://github.com/duopixel/Method-Draw/ -->
 <g>
  <title>Layer 1</title>
  <path id="svg_4" d="m4.5125,99.83916l0,0c0,-53.01933 42.98067,-95.99999 96,-95.99999l0,0c25.46077,0 49.87875,10.11425 67.88223,28.11774c18.0035,18.0035 28.11776,42.42146 28.11776,67.88225l0,0c0,53.01933 -42.98066,96 -95.99999,96l0,0c-53.01933,0 -96,-42.98067 -96,-96zm48,0l0,0c0,26.50966 21.49035,48 48,48c26.50967,0 48,-21.49034 48,-48c0,-26.50966 -21.49034,-48 -48,-48l0,0c-26.50965,0 -48,21.49035 -48,48z" fill-opacity="0.83" stroke-opacity="0" stroke-width="0" stroke="#000000" fill="#383838"/>
 </g>
</svg>