<?xml version="1.0" encoding="utf-8"?>
<!-- Generator: Adobe Illustrator 16.2.0, SVG Export Plug-In . SVG Version: 6.00 Build 0)  -->
<!DOCTYPE svg PUBLIC "-//W3C//DTD SVG 1.1//EN" "http://www.w3.org/Graphics/SVG/1.1/DTD/svg11.dtd">
<svg version="1.1" id="レイヤー_1" xmlns="http://www.w3.org/2000/svg" xmlns:xlink="http://www.w3.org/1999/xlink" x="0px"
y="0px" width="56.329px" height="58.434px" viewBox="0 0 56.329 58.434" enable-background="new 0 0 56.329 58.434"
xml:space="preserve">
<path fill-rule="evenodd" clip-rule="evenodd" fill="#222222" d="M38.904,58.434c-4.053,0-7.779-1.388-10.74-3.708
c-2.96,2.32-6.687,3.708-10.739,3.708C7.801,58.434,0,50.632,0,41.009c0-9.569,7.713-17.333,17.261-17.421v6.685
C11.405,30.36,6.685,35.132,6.685,41.009c0,5.932,4.809,10.74,10.741,10.74c5.917,0,10.714-4.784,10.739-10.694
c0.025,5.91,4.823,10.694,10.74,10.694c5.932,0,10.74-4.809,10.74-10.74c0-5.878-4.722-10.649-10.578-10.737v-6.685
c9.549,0.088,17.263,7.852,17.263,17.421C56.329,50.632,48.527,58.434,38.904,58.434z"/>
</svg>